<svg version="1.1" id="Layer_1" xmlns="http://www.w3.org/2000/svg" xmlns:xlink="http://www.w3.org/1999/xlink" x="0px" y="0px"
	 width="100%" viewBox="0 0 1024 1024" enable-background="new 0 0 1024 1024" xml:space="preserve">
<path fill="#000000" opacity="1.000000" stroke="none" 
	d="
M312.754456,763.999756 
	C312.842896,735.340454 312.886719,707.180847 313.071899,679.022217 
	C313.095673,675.406677 311.916443,672.951904 309.270447,670.372986 
	C297.304169,658.710205 287.305969,645.382019 277.976257,631.576050 
	C261.492035,607.182922 250.164978,580.477539 242.689041,552.055969 
	C231.098373,507.991333 230.841888,463.673401 241.192490,419.520691 
	C251.486267,375.610443 272.453033,336.971222 301.747833,302.650391 
	C321.548401,279.452637 344.597351,260.214691 370.603729,244.626770 
	C404.412170,224.362457 440.747009,210.903625 480.194122,206.617172 
	C511.919922,203.169708 543.435059,204.223114 574.514954,211.693985 
	C614.051453,221.197632 649.935425,238.549454 682.711975,262.632538 
	C712.292480,284.367279 735.768250,311.485077 755.114136,342.432251 
	C778.414062,379.704407 789.475647,420.749512 793.358459,464.178558 
	C795.838745,491.919922 791.812073,518.963806 786.208740,545.908264 
	C778.245361,584.201477 762.335754,619.038818 738.436646,649.882935 
	C703.211060,695.344849 659.278259,729.230530 603.749512,746.392395 
	C584.524658,752.333984 564.825378,756.803162 544.742432,759.005615 
	C540.297546,759.493103 537.607544,760.968750 535.818787,765.381653 
	C531.754883,775.407227 524.017700,780.366455 514.238831,780.133850 
	C503.944183,779.888977 496.803650,774.685608 492.985138,764.259766 
	C492.057953,761.728394 490.720886,760.400024 488.108215,760.026611 
	C471.791077,757.694275 455.527374,755.093384 439.655029,750.476013 
	C437.139984,749.744446 434.748840,750.523499 432.527069,751.937622 
	C420.166504,759.805176 407.440704,767.072571 395.211121,775.172241 
	C384.669220,782.154175 373.664673,788.445557 362.771515,794.884644 
	C359.378296,796.890381 357.532196,799.439758 356.700104,803.393799 
	C354.200836,815.269958 344.600983,822.803223 333.228729,822.326172 
	C322.771271,821.887512 313.936646,813.320679 312.613708,801.424072 
	C311.248749,789.149536 313.357056,776.815247 312.754456,763.999756 
M573.441101,261.177521 
	C559.462830,257.267853 545.238525,254.446671 530.784241,253.433533 
	C491.815765,250.702148 454.613098,257.779266 418.901917,273.704376 
	C368.780701,296.055542 332.381073,332.726135 306.673615,380.494080 
	C292.783508,406.303711 285.198120,434.079407 283.080597,463.394989 
	C281.719635,482.236603 281.860840,500.968292 284.920166,519.624268 
	C289.537781,547.782837 299.901001,573.842163 314.867737,597.975769 
	C326.462982,616.672913 338.752472,634.984497 357.408813,647.726501 
	C359.288300,649.010132 359.896881,650.669617 359.883881,652.823425 
	C359.847687,658.814880 359.935089,664.806946 359.903839,670.798462 
	C359.741364,701.956238 359.543121,733.113708 359.414642,764.271545 
	C359.406799,766.176147 358.769531,768.250671 360.137909,770.002014 
	C362.281250,770.249451 363.594574,768.789856 365.108032,767.861877 
	C395.358215,749.315063 425.639343,730.817932 455.806152,712.136353 
	C462.594055,707.932739 469.684326,706.891479 477.353546,708.140015 
	C479.745117,708.529297 482.167175,709.115356 484.869659,708.218567 
	C483.920471,705.616882 482.960663,703.332947 482.248383,700.974182 
	C479.067078,690.438538 481.636047,681.311096 489.070068,673.357544 
	C491.644226,670.603516 494.256195,670.339600 497.505768,672.249023 
	C502.096863,674.946716 506.873383,677.327576 511.548096,679.885010 
	C513.382568,680.888733 515.769348,681.184326 516.569214,683.576904 
	C516.271362,685.142578 515.012024,685.773560 513.826477,686.298096 
	C508.324341,688.732422 506.884491,692.945312 507.007812,698.777527 
	C507.360077,715.435486 507.161346,732.104919 507.196594,748.769836 
	C507.200104,750.434143 507.047180,752.166626 507.442261,753.748779 
	C508.394257,757.560913 510.423523,760.554260 514.839722,760.610291 
	C519.476501,760.669006 521.742798,757.827271 522.527283,753.595825 
	C522.767212,752.301514 522.663330,750.937744 522.664490,749.605774 
	C522.680847,730.107727 522.503418,710.606689 522.822021,691.113708 
	C522.906372,685.956055 520.863525,683.121521 516.630005,680.922607 
	C508.060059,676.471375 499.624268,671.762390 491.068909,667.282349 
	C485.385498,664.306213 480.414551,660.440491 476.094055,655.754761 
	C462.888580,641.433167 463.328125,619.004028 477.002869,606.170654 
	C483.729767,599.857666 485.923584,599.503235 494.184631,603.378906 
	C498.707703,605.500854 503.247711,607.587341 507.752228,609.747803 
	C509.216278,610.449951 510.874542,610.977173 511.847198,613.355835 
	C505.246765,615.990662 506.958130,622.126221 506.515991,627.365845 
	C506.195648,631.161865 506.582977,635.018921 506.677704,638.848145 
	C506.722015,640.641113 507.165894,642.533264 505.310730,643.763672 
	C494.938141,640.991089 490.820404,634.159302 493.162201,622.677612 
	C484.826874,631.239380 485.396698,639.876160 493.833801,645.724365 
	C503.569794,652.472778 514.207031,657.729370 524.438721,663.658142 
	C530.644226,667.253845 536.901001,670.819092 541.812012,676.167969 
	C547.531189,682.397034 550.350647,689.646423 548.366821,698.159363 
	C547.495422,701.898743 546.138977,705.525024 544.908142,709.508850 
	C570.759888,706.240112 595.182617,699.824585 617.951111,688.335083 
	C662.955566,665.624634 696.722778,631.160217 720.347290,586.926880 
	C739.004883,551.993347 746.826538,514.384583 745.891541,474.764130 
	C745.242798,447.270874 740.605103,420.538513 729.148254,395.672607 
	C697.844543,327.730896 646.359253,282.502167 573.441101,261.177521 
M269.509094,525.905090 
	C265.157623,504.351349 264.748077,482.661774 266.620300,460.794586 
	C269.177704,430.924957 276.675598,402.407440 289.817749,375.533142 
	C302.435516,349.731201 319.534576,327.069397 339.971802,306.852844 
	C356.672729,290.332275 375.278656,276.396606 395.702301,264.927612 
	C400.734558,262.101685 404.377136,258.618988 406.581696,253.406235 
	C407.723236,250.707047 409.358826,251.153641 411.251678,252.779373 
	C415.502106,256.429962 418.352448,255.417740 421.682953,250.802017 
	C423.807739,247.857330 426.680756,243.859360 431.050781,245.008072 
	C434.756958,245.982254 437.362732,244.740707 439.774658,242.856339 
	C442.442566,240.771988 445.246521,240.018616 448.496338,239.753616 
	C454.403473,239.271973 459.950256,241.593445 466.179718,240.322296 
	C503.164825,232.775345 539.984924,234.476181 576.539917,243.698318 
	C623.654602,255.584457 662.851929,280.655182 696.086121,315.540436 
	C703.081543,322.883331 709.284546,330.979736 715.887085,338.699524 
	C716.916138,339.902649 717.664673,341.692749 719.796021,341.223511 
	C724.845276,340.111847 727.836060,343.251953 729.774292,346.936218 
	C734.861328,356.605713 741.790161,365.185760 746.122864,375.303040 
	C748.180969,380.108856 748.052063,380.978424 742.655273,382.580933 
	C743.437317,384.769348 744.148132,386.976318 745.005798,389.124725 
	C754.138245,412.003448 759.979309,435.810638 761.914856,460.247040 
	C763.998291,486.550568 762.006531,512.807617 755.607422,538.571655 
	C746.619446,574.759338 731.551575,607.994019 707.788452,636.995972 
	C703.520874,642.204529 699.588440,647.831421 694.614929,652.272644 
	C690.597656,655.860046 689.388733,660.202759 687.486633,665.179016 
	C692.466309,665.092957 695.464111,661.810059 699.149109,660.272766 
	C706.637573,657.148865 713.731812,651.673462 715.332092,644.363403 
	C717.048584,636.522583 724.451965,633.750977 726.403687,626.980286 
	C726.441650,626.848755 726.636536,626.702881 726.781921,626.670471 
	C731.692688,625.576782 733.032898,621.149109 735.328003,617.587219 
	C756.291565,585.052429 768.170349,549.208069 772.507690,511.017151 
	C775.330872,486.159241 774.763367,461.190277 769.737305,436.447845 
	C764.633301,411.321655 756.961853,386.917419 744.879028,364.473694 
	C721.915466,321.818909 689.326233,287.811798 647.676697,262.713074 
	C607.003906,238.202911 563.005371,225.247604 515.481384,224.319595 
	C483.417664,223.693497 452.620026,229.898499 422.729187,241.169586 
	C375.154388,259.108887 336.303986,288.642090 305.886749,329.298431 
	C285.020020,357.189301 269.426086,387.606720 261.455292,421.761810 
	C257.928741,436.873108 255.098480,452.079529 254.357117,467.542236 
	C253.214325,491.377808 254.626953,515.023132 259.883789,538.471497 
	C264.729706,560.086853 272.368561,580.516113 282.693878,600.018433 
	C283.666595,601.855713 284.559784,603.941589 286.832581,604.610657 
	C290.525726,602.680725 287.205261,600.129150 287.561096,597.917053 
	C288.536102,591.856079 287.127319,585.856506 285.059875,580.364563 
	C278.480255,562.886719 272.307465,545.341431 269.509094,525.905090 
M328.109924,648.388794 
	C325.138763,643.004883 318.541351,648.373291 315.539154,643.786804 
	C314.597076,644.536255 314.443054,645.278870 314.871246,645.814697 
	C317.766296,649.437012 320.582062,653.060791 324.037628,656.279419 
	C328.187927,660.145142 332.497742,663.987732 332.444397,670.886658 
	C332.198334,702.715210 332.237610,734.547852 332.470245,766.376892 
	C332.525513,773.942871 332.467651,781.616821 334.459351,790.688416 
	C335.569122,786.428162 336.776398,783.817139 339.600922,782.688843 
	C342.628021,781.479675 342.964264,779.212097 343.110413,776.318359 
	C343.750824,763.635681 341.565277,751.184021 340.364410,738.651978 
	C339.178711,726.278198 336.675140,714.016785 339.811981,701.453674 
	C340.919281,697.018799 342.784058,692.642334 342.897430,687.981567 
	C343.067596,680.985657 342.996887,673.984314 343.097565,666.986267 
	C343.130554,664.693115 342.000244,663.165710 340.775787,661.282166 
	C337.511749,656.261230 331.982269,653.674866 328.109924,648.388794 
z"/>
<path fill="#000000" opacity="1.000000" stroke="none" 
	d="
M536.995605,534.309326 
	C537.043213,548.200623 537.184692,561.628296 536.330566,575.098694 
	C549.105103,574.419250 563.848877,562.108337 566.365173,550.639099 
	C567.848511,543.877747 562.592407,535.097046 554.680054,530.897644 
	C552.663879,529.827515 550.174988,529.609741 548.604858,527.712646 
	C548.981812,525.976257 550.468872,525.927185 551.657532,525.508911 
	C555.742065,524.071716 560.291077,523.373901 563.831909,521.100098 
	C570.115356,517.065002 574.034363,520.193420 578.169556,524.264160 
	C592.803711,538.670349 591.162415,565.271118 574.862549,579.740112 
	C567.798096,586.011047 559.701111,590.538818 551.333679,594.701355 
	C549.269592,595.728149 547.329773,595.909119 545.182922,594.690430 
	C538.957336,591.156311 532.660583,587.746704 526.367554,584.332764 
	C523.733093,582.903625 522.764465,580.797546 522.766418,577.794983 
	C522.799622,526.137207 522.786194,474.479370 522.679077,422.821777 
	C522.670654,418.771210 524.437317,417.647278 528.130310,417.683960 
	C532.933777,417.731750 537.772034,418.221924 542.529541,416.853943 
	C552.290283,414.047302 559.206482,408.309143 562.752563,398.540436 
	C569.993591,378.592987 582.486877,369.916718 603.521179,369.916748 
	C633.349365,369.916809 663.177612,369.898743 693.005737,369.942261 
	C707.969360,369.964081 718.668945,378.880646 720.658875,393.418610 
	C721.914612,402.592499 717.354919,409.511292 710.361816,414.821198 
	C707.619934,416.903137 706.277710,418.937012 706.056946,422.532684 
	C705.056213,438.831268 692.943726,451.253082 676.446106,453.321808 
	C661.507080,455.195099 646.489319,453.824890 631.515381,454.306946 
	C630.086182,454.352936 628.654236,454.313080 627.211182,454.585175 
	C638.162170,457.746857 649.422302,457.871185 661.682373,457.694336 
	C659.567688,462.376465 656.239197,464.813507 653.138428,467.261230 
	C643.313477,475.016998 631.859009,475.399353 619.925232,475.051086 
	C610.118286,474.764893 604.624390,472.652679 602.164612,461.347443 
	C599.040283,446.988159 587.708496,437.785339 574.242798,432.080811 
	C563.480957,427.521729 553.876099,431.477814 544.666626,437.117401 
	C552.588196,436.397308 560.452759,435.890564 568.186890,438.268463 
	C583.623108,443.014313 596.207397,457.001404 597.304077,470.657806 
	C598.954041,491.205200 590.998474,506.157928 573.440125,514.867737 
	C563.581848,519.757874 552.944580,522.695435 542.592896,526.318787 
	C538.749573,527.664062 536.529785,529.595154 536.995605,534.309326 
M643.792725,401.475342 
	C650.245850,401.008423 656.261963,396.346191 662.754456,398.268860 
	C670.903015,400.681976 679.128418,400.583496 687.379333,400.800201 
	C691.269775,400.902374 695.873596,401.326355 698.083252,397.262695 
	C699.441040,394.765625 701.300293,393.397552 703.651245,392.260315 
	C702.900818,388.798584 700.535217,388.363403 697.930237,388.362427 
	C666.481140,388.350800 635.030334,388.166351 603.584045,388.461517 
	C594.510315,388.546661 586.597534,392.170288 582.253418,400.852356 
	C578.563599,408.226562 576.245361,416.285339 570.791687,423.144836 
	C573.936096,421.702240 575.716614,423.329315 577.668396,424.962616 
	C579.566467,426.550995 581.644775,428.142609 584.331848,428.010437 
	C588.762085,427.792542 592.879395,428.994843 596.982849,430.430237 
	C598.856262,431.085510 600.794189,431.812134 602.667847,430.308472 
	C608.796143,425.390259 613.985840,419.506012 615.035278,411.622162 
	C615.693359,406.678040 617.908569,404.716919 622.090454,403.380890 
	C628.923950,401.197723 635.981323,402.310425 643.792725,401.475342 
M563.452087,456.884644 
	C553.642883,455.049500 545.973389,460.828033 547.532104,469.542084 
	C548.448181,474.663361 547.070801,476.296600 542.256104,475.995209 
	C538.396484,475.753693 536.976196,477.705658 537.050415,481.457245 
	C537.175293,487.770447 537.063110,494.089935 536.963989,500.405396 
	C536.907654,503.995148 538.217773,505.315033 541.840210,504.010010 
	C546.210388,502.435608 550.726318,501.257294 555.067383,499.612610 
	C562.535828,496.783051 568.968445,492.518646 573.163330,485.449432 
	C580.064758,473.819244 576.464600,462.457153 563.452087,456.884644 
M649.134094,434.336975 
	C657.075500,436.210510 664.543396,433.083893 672.208618,432.086731 
	C673.073120,431.974243 674.216736,431.250244 674.577515,430.496857 
	C676.195923,427.117920 679.371338,426.674835 682.437988,425.969849 
	C684.236145,425.556488 686.169495,425.498871 688.867554,423.302368 
	C685.504333,423.302368 683.557312,423.303589 681.610291,423.302216 
	C662.663696,423.288666 643.717163,423.268402 624.770569,423.264191 
	C618.130554,423.262726 616.569092,424.480743 614.371399,431.272186 
	C617.552063,432.798615 621.013855,434.093933 624.416992,433.595398 
	C632.440063,432.419952 640.319336,433.311920 649.134094,434.336975 
z"/>
<path fill="#000000" opacity="1.000000" stroke="none" 
	d="
M506.382172,573.764648 
	C506.287659,575.707031 506.590485,577.252991 505.591492,578.560486 
	C497.108307,578.238953 492.764404,573.934753 492.741913,565.797302 
	C492.714264,555.800049 492.336212,545.784424 492.831451,535.812561 
	C493.120575,529.991699 491.002350,527.411804 485.526093,526.202148 
	C474.759277,523.823914 464.371979,520.133728 454.709045,514.808411 
	C429.902405,501.137177 423.475067,470.324097 441.236023,450.273560 
	C453.569244,436.350433 469.353577,434.526215 486.409393,438.004456 
	C481.739990,432.854034 466.836639,428.887848 459.072021,430.961304 
	C440.056976,436.039062 429.015533,448.633270 425.539734,467.730713 
	C424.778931,471.910889 423.239441,473.075439 419.311310,473.641022 
	C407.501282,475.341492 395.772858,476.574402 384.308563,472.104797 
	C377.444366,469.428558 371.439148,465.526093 366.820435,458.316498 
	C375.876404,457.233459 383.972839,456.265167 392.069275,455.296875 
	C392.054932,454.922760 392.040588,454.548615 392.026245,454.174500 
	C382.670227,454.174500 373.314056,454.139130 363.958282,454.186615 
	C357.435425,454.219696 350.996796,453.825562 344.758514,451.653992 
	C331.618591,447.079956 323.214478,435.865265 322.731293,421.944244 
	C322.651306,419.639893 322.211426,417.961273 320.133423,416.475861 
	C309.140594,408.617706 305.524170,399.130066 308.866913,387.655640 
	C311.987671,376.943176 320.930176,370.136322 333.962341,370.030365 
	C366.783905,369.763519 399.623383,369.421204 432.427460,370.240082 
	C448.911865,370.651550 459.786407,380.857941 465.268005,396.085327 
	C468.831207,405.983521 474.384979,413.300415 484.620972,416.665527 
	C489.841187,418.381714 495.184113,418.043701 500.473389,417.840210 
	C505.022888,417.665192 506.477020,419.183441 506.463226,423.838409 
	C506.315430,473.657135 506.378448,523.476501 506.382172,573.764648 
M453.372131,480.977631 
	C455.150543,486.378693 458.349121,490.749878 462.990692,494.022491 
	C470.767303,499.505554 479.764160,502.028290 488.771667,504.487427 
	C491.649689,505.273163 492.709015,503.873596 492.680450,501.078674 
	C492.615662,494.747101 492.386963,488.397766 492.760345,482.087341 
	C493.050476,477.184235 491.232758,475.419617 486.474731,475.922974 
	C482.522614,476.341095 480.227631,475.578217 481.367096,470.386932 
	C483.087280,462.549744 477.444153,456.374634 469.357117,456.303772 
	C457.895447,456.203308 449.953827,467.945740 453.372131,480.977631 
M447.618073,401.947021 
	C442.552338,392.402222 434.282654,388.355286 423.824432,388.315033 
	C406.493408,388.248352 389.161865,388.308075 371.830566,388.311218 
	C358.332123,388.313660 344.833618,388.335114 331.335327,388.290924 
	C328.516357,388.281708 325.465607,388.452454 324.882416,391.635651 
	C324.209503,395.308350 327.015106,398.091400 328.922821,400.933441 
	C330.399841,403.133881 332.577942,402.611511 334.786194,401.928741 
	C338.452789,400.795105 342.235107,400.198212 346.070038,399.863983 
	C349.057312,399.603668 352.312042,399.431427 354.570618,397.367676 
	C357.575714,394.621826 361.035034,394.042328 364.737762,394.129364 
	C376.527588,394.406494 388.357117,393.406769 400.090393,395.740601 
	C403.432281,396.405304 406.994446,396.983063 410.503662,396.308868 
	C417.380035,394.987701 422.151978,397.286621 423.210052,403.970551 
	C424.004669,408.990295 427.164185,410.872986 430.625397,413.116486 
	C433.685730,415.100128 436.772949,415.059235 439.297058,412.553955 
	C441.848816,410.021240 439.813904,407.604126 438.218933,405.473602 
	C436.625275,403.344849 434.800110,401.390900 433.149689,399.302460 
	C432.380341,398.328979 431.018066,397.505432 431.896698,395.767853 
	C434.006470,394.810272 435.667084,396.114990 437.311737,397.126648 
	C441.295929,399.577362 443.764313,403.326599 445.708679,407.442566 
	C447.674408,411.603760 450.365936,415.121429 454.311127,417.721100 
	C451.091919,413.098358 450.184631,407.576508 447.618073,401.947021 
M380.041229,433.169952 
	C387.227814,434.543884 394.336945,436.144592 401.792816,435.795044 
	C406.224487,435.587280 408.079834,433.362579 408.930542,429.625397 
	C409.357727,427.748962 409.436859,425.793335 409.674042,423.868103 
	C386.281433,423.868103 363.159515,423.868103 339.916748,423.868103 
	C340.255432,425.378540 341.010437,425.907104 341.807526,425.984253 
	C348.218903,426.604919 354.639160,427.103058 359.750275,431.792725 
	C360.148712,432.158264 361.034851,432.024780 361.697845,432.064240 
	C367.508606,432.410278 373.320221,432.742889 380.041229,433.169952 
z"/>
<path fill="#000000" opacity="1.000000" stroke="none" 
	d="
M469.073730,360.447723 
	C465.751770,321.631866 496.605408,303.010742 525.088013,308.772461 
	C550.054932,313.822998 566.154480,341.949829 558.528625,367.220123 
	C552.143921,388.377686 534.708801,401.104248 513.410461,400.153656 
	C489.993774,399.108521 474.072784,384.980896 469.073730,360.447723 
M493.911896,346.937561 
	C489.730103,346.474670 488.436310,348.552246 488.333893,352.506622 
	C488.083557,362.172882 487.948792,362.169464 497.657684,362.110016 
	C498.324280,362.105927 498.990875,362.099854 499.657471,362.095062 
	C506.489075,362.045746 506.392120,362.045837 506.397705,368.932739 
	C506.406952,380.303650 505.156555,378.720093 516.160767,378.869568 
	C522.859497,378.960541 522.921082,378.842133 522.922913,372.293610 
	C522.925964,361.645081 521.519104,362.088989 533.162720,362.036957 
	C541.762756,361.998505 541.762817,362.005707 541.642517,353.653717 
	C541.537476,346.359344 541.537476,346.359100 534.133667,346.377197 
	C532.633789,346.380890 531.133728,346.375244 529.634033,346.394684 
	C522.867065,346.482513 522.919373,346.484619 522.846436,339.529816 
	C522.725891,328.045441 524.378113,329.558777 512.251770,329.331818 
	C507.677155,329.246246 506.267365,331.175476 506.277893,335.655853 
	C506.305969,347.606476 508.938599,346.983765 493.911896,346.937561 
z"/>
<path fill="#000000" opacity="1.000000" stroke="none" 
	d="
M507.395233,585.529541 
	C519.299683,591.607910 530.892761,597.474121 542.420410,603.466125 
	C569.742249,617.668091 564.679565,648.777283 545.705811,662.214844 
	C543.610291,663.699036 541.864685,663.833069 539.754150,662.655273 
	C535.100281,660.058044 530.442200,657.466858 525.744934,654.949463 
	C523.155945,653.562012 522.651611,651.363708 522.673584,648.665527 
	C522.748169,639.499939 522.424866,630.323059 522.784668,621.171387 
	C522.963745,616.615967 521.212769,614.133301 517.333252,612.239197 
	C505.503571,606.463623 493.491241,601.114014 481.402863,595.904968 
	C468.598846,590.387451 456.597290,583.612671 448.249542,571.871521 
	C436.039185,554.697815 439.025208,532.867249 455.253326,520.690125 
	C456.576202,519.697510 457.806030,518.316284 459.684509,519.051331 
	C466.141541,521.577881 472.571625,524.173157 478.804291,526.659424 
	C478.453674,529.467102 476.619568,529.485718 475.395691,530.126709 
	C461.458099,537.426575 458.936859,551.187317 469.619446,562.802917 
	C477.708832,571.598816 488.608154,576.151306 498.906830,581.565857 
	C501.557434,582.959290 504.334900,584.111572 507.395233,585.529541 
M537.130798,629.694824 
	C537.600586,633.666443 535.769836,637.649536 536.820068,641.918457 
	C543.290405,636.639709 543.410095,628.350830 537.138000,623.707703 
	C537.138000,625.568909 537.138000,627.204468 537.130798,629.694824 
z"/>
</svg>